<svg width="50" height="54" viewBox="0 0 50 54" fill="none" xmlns="http://www.w3.org/2000/svg">
<path d="M39.2972 20.8182L44.6104 23.6924L45.7227 24.3173C48.0924 25.6487 48.0924 29.0812 45.7227 30.4126L30.6311 38.8915C27.1311 40.858 22.8689 40.858 19.3689 38.8915L4.27731 30.4126C1.90756 29.0812 1.90756 25.6487 4.27732 24.3173L5.38962 23.6924L10.4084 20.8182M40.4527 33.6152L45.2823 36.0463C47.773 37.3001 47.853 40.8494 45.4213 42.2156L30.6311 50.5252C27.1311 52.4916 22.8689 52.4916 19.3689 50.5252L4.7945 42.3368C2.32099 40.9471 2.45728 37.3194 5.02799 36.1218L10.4084 33.6152M30.6311 26.5279L45.7227 18.049C48.0924 16.7176 48.0924 13.2851 45.7227 11.9537L30.6311 3.47482C27.1311 1.50839 22.8689 1.50839 19.3689 3.47482L4.27732 11.9537C1.90757 13.2851 1.90756 16.7176 4.27731 18.049L19.3689 26.5279C22.8689 28.4944 27.1311 28.4944 30.6311 26.5279Z" stroke="#4F77FF" stroke-width="3.75"/>
</svg>
